:SAMPLES-PER-SECOND 24
:FULLY-SPECIFIED
:DEGREES
502
root  7.61996 39.6067 40.9134 15.1458 -65.7814 -10.4174
RightUpLeg  -22.0096 -6.63231 -1.1351
RightLeg  33.1918 -5.39828 -4.0367
RightFoot  -5.97181 -0.377331 7.16766
RightToes  -2.08645e-008 3.77894e-005 6.81332e-007
Spine  2.50329 -1.7076 -3.38526
Spine1  7.85115 -3.90063 8.24893
HEad  -35.2359 46.1535 -19.5894
LeftShoulder1  7.40791 -13.2214 -38.1779
LeftArm  5.15081 24.8037 -24.297
LeftForeArm  150.996 -77.0845 -134.408
LeftHand  -0.562952 -2.62235 8.37662
RightShoulder  4.11151 6.73438 34.2679
RightArm  -13.6697 -20.0767 36.3398
RightForeArm  16.6727 13.4696 7.44865
RightHand  -1.47898 7.2761 -13.8216
LeftUpLeg  -6.64815 -2.35086 1.56487
LeftLeg  17.5428 9.89152 3.91608
LeftFoot  -13.6209 0.031064 -2.53214
LeftToes  1.24767e-006 1.47042e-008 1.32732e-009
503
root  7.56696 39.6685 41.1033 16.6309 -64.8674 -11.3215
RightUpLeg  -22.5105 -4.74544 -0.761288
RightLeg  31.4816 -5.54653 -3.89165
RightFoot  -7.47614 -0.288677 7.03774
RightToes  -2.08645e-008 3.77894e-005 6.81332e-007
Spine  1.87955 -1.92275 -4.24184
Spine1  7.35804 -4.45425 9.82874
HEad  -33.9754 46.0522 -18.6349
LeftShoulder1  7.39969 -13.2262 -38.1183
LeftArm  7.82666 25.3664 -23.3344
LeftForeArm  153.948 -76.3985 -137.403
LeftHand  -0.517611 -2.89764 7.48202
RightShoulder  4.14463 6.75464 34.509
RightArm  -20.0456 -23.4451 33.4113
RightForeArm  26.2632 7.92768 7.60628
RightHand  -1.54944 7.54131 -14.1776
LeftUpLeg  -6.39898 -3.43511 1.6532
LeftLeg  15.771 10.5911 4.21088
LeftFoot  -13.3769 0.0456442 -1.94248
LeftToes  1.24767e-006 1.47042e-008 1.32732e-009
504
root  7.46632 39.6706 41.1942 17.3638 -64.915 -11.4584
RightUpLeg  -23.1883 -1.44208 -0.702105
RightLeg  29.2164 -6.3627 -4.06531
RightFoot  -7.69024 -0.264854 6.66397
RightToes  -2.08645e-008 3.77894e-005 6.81332e-007
Spine  1.92964 -2.05893 -6.01484
Spine1  6.63374 -4.91096 11.5611
HEad  -34.3275 46.3249 -18.5707
LeftShoulder1  7.40083 -13.2379 -38.0951
LeftArm  9.66727 26.5163 -22.3535
LeftForeArm  153.952 -76.1112 -138.303
LeftHand  -0.501511 -3.06055 7.1269
RightShoulder  4.1674 6.76509 34.6876
RightArm  -20.4965 -27.3785 31.0408
RightForeArm  27.7624 6.63846 7.67534
RightHand  -1.39508 7.69609 -12.666
LeftUpLeg  -6.13259 -2.66784 1.49035
LeftLeg  14.3491 10.1781 4.17511
LeftFoot  -13.3774 0.0543889 -1.44948
LeftToes  1.24767e-006 1.47042e-008 1.32732e-009
505
root  7.4091 39.627 41.2526 17.0012 -65.1323 -10.7278
RightUpLeg  -23.7451 1.26776 -0.870236
RightLeg  26.4054 -6.59982 -3.77442
RightFoot  -7.68284 -0.24794 6.11562
RightToes  -2.08645e-008 3.77894e-005 6.81332e-007
Spine  3.02206 -2.66898 -7.33257
Spine1  5.90357 -5.65379 12.2889
HEad  -36.4868 47.0663 -19.5839
LeftShoulder1  7.39217 -13.2301 -38.0653
LeftArm  10.483 27.5341 -21.4117
LeftForeArm  153.699 -75.9853 -138.633
LeftHand  -0.540988 -3.01099 7.71142
RightShoulder  4.1782 6.77475 34.7536
RightArm  -19.1942 -31.0174 29.6978
RightForeArm  25.1741 8.46632 8.29542
RightHand  -1.29469 7.39075 -12.0597
LeftUpLeg  -5.99409 -2.45281 0.971779
LeftLeg  13.7252 10.1243 4.21392
LeftFoot  -13.4691 0.0601381 -1.10938
LeftToes  1.24767e-006 1.47042e-008 1.32732e-009
506
root  7.38155 39.5401 41.3291 16.8794 -65.8608 -10.3844
RightUpLeg  -24.3832 2.69759 -0.577158
RightLeg  23.2528 -5.24828 -2.68489
RightFoot  -7.97426 -0.238059 6.24985
RightToes  -2.08645e-008 3.77894e-005 6.81332e-007
Spine  4.34896 -3.4163 -7.25264
Spine1  5.59163 -6.29567 11.7082
HEad  -39.7997 47.8122 -21.8444
LeftShoulder1  7.48942 -13.3293 -38.3696
LeftArm  10.9364 27.6117 -20.6064
LeftForeArm  152.877 -76.1066 -138.097
LeftHand  -0.568231 -2.76155 8.31815
RightShoulder  4.1617 6.76152 34.6467
RightArm  -12.7563 -34.1171 29.2489
RightForeArm  18.0159 13.6975 7.825
RightHand  -1.30971 7.15701 -12.4062
LeftUpLeg  -6.13229 -2.81104 0.405779
LeftLeg  14.0739 11.2248 4.62332
LeftFoot  -14.0582 0.0622269 -0.930224
LeftToes  1.24767e-006 1.47042e-008 1.32732e-009
507
root  7.3133 39.4309 41.4054 17.6089 -67.3463 -10.868
RightUpLeg  -25.312 4.32603 0.140107
RightLeg  20.4821 -3.47934 -1.64678
RightFoot  -8.04048 -0.252576 6.85843
RightToes  -2.08645e-008 3.77894e-005 6.81332e-007
Spine  5.65912 -3.90195 -6.75226
Spine1  5.27802 -6.70955 11.3855
HEad  -43.1105 48.7002 -24.9204
LeftShoulder1  7.65906 -13.4906 -38.9204
LeftArm  11.0208 26.6595 -20.8474
LeftForeArm  150.405 -76.678 -135.716
LeftHand  -0.573132 -2.5953 8.55027
RightShoulder  4.13251 6.74264 34.4388
RightArm  -3.26078 -36.5211 28.8167
RightForeArm  8.82408 20.7238 5.1652
RightHand  -1.21305 7.32059 -11.3825
LeftUpLeg  -6.52234 -2.918 0.0800795
LeftLeg  15.1202 12.9076 5.12455
LeftFoot  -14.8252 0.0637129 -0.826862
LeftToes  1.24767e-006 1.47042e-008 1.32732e-009
508
root  7.18704 39.3084 41.5102 18.5947 -68.7825 -11.717
RightUpLeg  -26.1976 6.11269 0.882887
RightLeg  18.6712 -2.05902 -0.982142
RightFoot  -8.26481 -0.254398 7.37154
RightToes  -2.08645e-008 3.77894e-005 6.81332e-007
Spine  7.40979 -4.40235 -5.95717
Spine1  4.39151 -7.21059 11.6048
HEad  -45.5924 50.1925 -27.885
LeftShoulder1  7.82205 -13.6372 -39.4589
LeftArm  10.8314 24.7497 -22.1592
LeftForeArm  148.301 -77.2208 -133.288
LeftHand  -0.580715 -2.65512 8.60018
RightShoulder  4.12086 6.756 34.2742
RightArm  -2.45702 -38.1266 27.5135
RightForeArm  9.11223 27.1895 5.28752
RightHand  -1.12747 7.25045 -10.6661
LeftUpLeg  -6.86179 -3.08913 -0.0894753
LeftLeg  16.4593 14.4388 5.6509
LeftFoot  -15.7018 0.0569045 -0.971747
LeftToes  1.24767e-006 1.47042e-008 1.32732e-009
509
root  6.96544 39.1718 41.6858 19.1555 -70.1908 -12.2576
RightUpLeg  -26.6269 7.13236 1.47711
RightLeg  17.8898 -0.839556 -0.508896
RightFoot  -8.54654 -0.24547 7.65121
RightToes  -2.08645e-008 3.77894e-005 6.81332e-007
Spine  8.87509 -5.02822 -4.55562
Spine1  3.62066 -7.70701 11.3858
HEad  -47.1674 52.1199 -30.3633
LeftShoulder1  7.99125 -13.7884 -40.0088
LeftArm  11.1123 21.7475 -23.6209
LeftForeArm  147.971 -77.3201 -132.828
LeftHand  -0.581006 -2.87823 8.38772
RightShoulder  4.08341 6.75276 33.9243
RightArm  -4.08664 -39.1292 26.4646
RightForeArm  11.6971 34.0229 6.91946
RightHand  -1.17891 6.92556 -11.4098
LeftUpLeg  -6.78056 -2.95838 -0.522336
LeftLeg  17.6379 15.7275 6.20463
LeftFoot  -17.0055 0.034197 -1.36373
LeftToes  1.24767e-006 1.47042e-008 1.32732e-009
510
root  6.57903 39.0648 41.9104 18.7515 -72.0563 -11.6892
RightUpLeg  -26.5692 8.12991 1.47111
RightLeg  17.8689 -0.522278 -0.39438
RightFoot  -7.95485 -0.262987 7.05739
RightToes  -2.08645e-008 3.77894e-005 6.81332e-007
Spine  9.02036 -5.51961 -2.93248
Spine1  3.81149 -8.01231 10.6389
HEad  -47.8969 53.9131 -32.5115
LeftShoulder1  8.1904 -13.9537 -40.6726
LeftArm  12.0229 17.7239 -24.7759
LeftForeArm  146.822 -77.4883 -131.889
LeftHand  -0.569521 -2.98358 8.12927
RightShoulder  4.01906 6.7124 33.4542
RightArm  -6.05064 -39.5312 26.1187
RightForeArm  14.797 41.1332 8.82944
RightHand  -1.18971 6.77132 -11.6481
LeftUpLeg  -5.87813 -1.83387 -1.49508
LeftLeg  17.4452 16.5807 6.28287
LeftFoot  -17.7293 0.0264085 -1.43216
LeftToes  1.24767e-006 1.47042e-008 1.32732e-009
511
root  6.06547 38.9964 42.1816 18.2585 -74.0804 -10.9118
RightUpLeg  -26.495 9.33498 1.06869
RightLeg  18.6147 -0.763011 -0.494683
RightFoot  -7.09234 -0.260093 5.70508
RightToes  -2.08645e-008 3.77894e-005 6.81332e-007
Spine  8.77769 -5.85676 -0.149609
Spine1  3.94029 -7.97779 9.19135
HEad  -47.9586 55.3705 -34.6877
LeftShoulder1  8.43714 -14.1487 -41.498
LeftArm  13.0357 13.483 -25.77
LeftForeArm  144.339 -77.9811 -129.172
LeftHand  -0.568802 -2.83309 8.25804
RightShoulder  4.0051 6.70179 33.3588
RightArm  -7.71034 -38.626 25.8502
RightForeArm  18.0739 46.8482 10.6605
RightHand  -1.16758 6.65906 -11.5402
LeftUpLeg  -4.4916 -0.48336 -2.45364
LeftLeg  16.2939 17.1479 5.84286
LeftFoot  -17.9225 0.031781 -1.31551
LeftToes  1.24767e-006 1.47042e-008 1.32732e-009
512
root  5.55721 38.8966 42.5016 19.5503 -76.1586 -11.952
RightUpLeg  -26.8886 10.1069 0.928435
RightLeg  20.2603 -0.152392 -0.271779
RightFoot  -7.33808 -0.228321 5.10953
RightToes  -2.08645e-008 3.77894e-005 6.81332e-007
Spine  9.67652 -6.04652 4.55319
Spine1  2.67269 -7.30038 6.66671
HEad  -48.3379 56.3633 -37.4958
LeftShoulder1  8.63268 -14.3053 -42.1308
LeftArm  13.8255 9.66291 -27.1227
LeftForeArm  142.141 -78.4224 -126.495
LeftHand  -0.594452 -2.80708 8.64448
RightShoulder  4.01482 6.71931 33.3864
RightArm  -7.58587 -35.5377 25.238
RightForeArm  19.3893 49.6663 11.751
RightHand  -1.22313 6.45927 -12.262
LeftUpLeg  -4.70009 1.8876 -2.946
LeftLeg  18.4258 16.4964 6.21505
LeftFoot  -19.1701 -0.0607171 -2.52627
LeftToes  1.24767e-006 1.47042e-008 1.32732e-009
